<?xml version="1.0" encoding="utf-8" ?>
<svg xmlns="http://www.w3.org/2000/svg" xmlns:ev="http://www.w3.org/2001/xml-events" xmlns:xlink="http://www.w3.org/1999/xlink" baseProfile="full" height="500" version="1.1" viewBox="0,0,93.0909090909091,45.45454545454545" width="1024">
    <defs/>
    <rect fill="white" height="45.45454545454545" stroke="black" stroke-width="0.1" width="93.0909090909091" x="0" y="0"/>
    <linearGradient gradientUnits="objectBoundingBox" id="id1" x1="1.0" x2="0.0" y1="0.0" y2="1.0">
        <stop offset="0%" stop-color="#f9f9f9"/>
        <stop offset="100%" stop-color="#ededed"/>
    </linearGradient>
    <rect fill="url(#id1) none" height="17.2" stroke="#b5a739" stroke-width="0.1" width="14.9" x="19.902776082977425" y="9.677272727272728"/>
    <linearGradient gradientUnits="objectBoundingBox" id="id2" x1="1.0" x2="0.0" y1="0.0" y2="1.0">
        <stop offset="0%" stop-color="whitesmoke"/>
        <stop offset="100%" stop-color="#999"/>
    </linearGradient>
    <rect fill="url(#id2) none" height="9.0" rx="0.5" ry="0.5" width="13.6" x="20.552776082977424" y="15.627272727272727"/>
    <rect fill="#e5b472" height="1.7" id="r_pins_horz.pin1.trace" width="1.2" x="20.752776082977423" y="25.227272727272727"/>
    <circle cx="21.352776082977424" cy="26.92727272727273" fill="#fff" id="r_pins_horz.pin1.cast" r="0.35"/>
    <circle cx="21.352776082977424" cy="25.877272727272725" fill="#fff" id="r_pins_horz.pin1.hole" r="0.35"/>
    <rect fill="#e5b472" height="1.7" id="r_pins_horz.pin2.trace" width="1.2" x="22.752776082977423" y="25.227272727272727"/>
    <circle cx="23.352776082977424" cy="26.92727272727273" fill="#fff" id="r_pins_horz.pin2.cast" r="0.35"/>
    <circle cx="23.352776082977424" cy="25.877272727272725" fill="#fff" id="r_pins_horz.pin2.hole" r="0.35"/>
    <rect fill="#e5b472" height="1.7" id="r_pins_horz.pin3.trace" width="1.2" x="24.752776082977427" y="25.227272727272727"/>
    <circle cx="25.352776082977424" cy="26.92727272727273" fill="#fff" id="r_pins_horz.pin3.cast" r="0.35"/>
    <circle cx="25.352776082977424" cy="25.877272727272725" fill="#fff" id="r_pins_horz.pin3.hole" r="0.35"/>
    <rect fill="#e5b472" height="1.7" id="r_pins_horz.pin4.trace" width="1.2" x="26.752776082977427" y="25.227272727272727"/>
    <circle cx="27.352776082977424" cy="26.92727272727273" fill="#fff" id="r_pins_horz.pin4.cast" r="0.35"/>
    <circle cx="27.352776082977424" cy="25.877272727272725" fill="#fff" id="r_pins_horz.pin4.hole" r="0.35"/>
    <rect fill="#e5b472" height="1.7" id="r_pins_horz.pin5.trace" width="1.2" x="28.752776082977427" y="25.227272727272727"/>
    <circle cx="29.352776082977424" cy="26.92727272727273" fill="#fff" id="r_pins_horz.pin5.cast" r="0.35"/>
    <circle cx="29.352776082977424" cy="25.877272727272725" fill="#fff" id="r_pins_horz.pin5.hole" r="0.35"/>
    <rect fill="#e5b472" height="1.7" id="r_pins_horz.pin6.trace" width="1.2" x="30.752776082977427" y="25.227272727272727"/>
    <circle cx="31.352776082977424" cy="26.92727272727273" fill="#fff" id="r_pins_horz.pin6.cast" r="0.35"/>
    <circle cx="31.352776082977424" cy="25.877272727272725" fill="#fff" id="r_pins_horz.pin6.hole" r="0.35"/>
    <rect fill="#e5b472" height="1.7" id="r_pins_horz.pin7.trace" width="1.2" x="32.75277608297743" y="25.227272727272727"/>
    <circle cx="33.35277608297743" cy="26.92727272727273" fill="#fff" id="r_pins_horz.pin7.cast" r="0.35"/>
    <circle cx="33.35277608297743" cy="25.877272727272725" fill="#fff" id="r_pins_horz.pin7.hole" r="0.35"/>
    <rect fill="#4e4c4c" height="2.0" width="0.2" x="21.252776082977423" y="27.127272727272725"/>
    <rect fill="#4e4c4c" height="0.2" width="0.2" x="21.052776082977424" y="28.92727272727273"/>
    <rect height="0.0" id="tuya2l.front.pins.label1.anchor" width="0.0" x="41.405552165954845" y="38.654545454545456"/>
    <rect fill="#4e4c4c" height="4.0" width="0.2" x="23.252776082977423" y="27.127272727272725"/>
    <rect fill="#4e4c4c" height="0.2" width="2.2" x="21.052776082977424" y="30.92727272727273"/>
    <rect height="0.0" id="tuya2l.front.pins.label2.anchor" width="0.0" x="41.405552165954845" y="40.65454545454545"/>
    <rect fill="#4e4c4c" height="6.0" width="0.2" x="25.252776082977427" y="27.127272727272725"/>
    <rect fill="#4e4c4c" height="0.2" width="4.2" x="21.052776082977424" y="32.92727272727273"/>
    <rect height="0.0" id="tuya2l.front.pins.label3.anchor" width="0.0" x="41.405552165954845" y="42.65454545454545"/>
    <rect fill="#4e4c4c" height="8.0" width="0.2" x="27.252776082977427" y="27.127272727272725"/>
    <rect fill="#4e4c4c" height="0.2" width="6.2" x="21.052776082977424" y="34.92727272727273"/>
    <rect height="0.0" id="tuya2l.front.pins.label4.anchor" width="0.0" x="41.405552165954845" y="44.65454545454545"/>
    <rect fill="#4e4c4c" height="8.0" width="0.2" x="29.252776082977427" y="27.127272727272725"/>
    <rect fill="#4e4c4c" height="0.2" width="6.2" x="29.352776082977424" y="34.92727272727273"/>
    <rect height="0.0" id="tuya2l.front.pins.label5.anchor" width="0.0" x="54.905552165954845" y="44.65454545454545"/>
    <rect fill="#4e4c4c" height="6.0" width="0.2" x="31.252776082977427" y="27.127272727272725"/>
    <rect fill="#4e4c4c" height="0.2" width="4.2" x="31.352776082977424" y="32.92727272727273"/>
    <rect height="0.0" id="tuya2l.front.pins.label6.anchor" width="0.0" x="54.905552165954845" y="42.65454545454545"/>
    <rect fill="#4e4c4c" height="4.0" width="0.2" x="33.25277608297743" y="27.127272727272725"/>
    <rect fill="#4e4c4c" height="0.2" width="2.2" x="33.35277608297743" y="30.92727272727273"/>
    <rect height="0.0" id="tuya2l.front.pins.label7.anchor" width="0.0" x="54.905552165954845" y="40.65454545454545"/>
    <text fill="#000" font-family="Consolas" font-size="1.0" x="23.852776082977424" y="15.127272727272727">WB2L</text>
    <rect fill="#e0e0e0" height="4.688524590163935" width="0.46875" x="20.884026082977424" y="10.348584202682563"/>
    <rect fill="#e0e0e0" height="0.45081967213114754" width="4.3125" x="20.884026082977424" y="10.348584202682563"/>
    <rect fill="#e0e0e0" height="4.688524590163935" width="0.46875" x="22.946526082977424" y="10.348584202682563"/>
    <rect fill="#e0e0e0" height="2.7049180327868854" width="0.46875" x="24.727776082977424" y="10.348584202682563"/>
    <rect fill="#e0e0e0" height="0.45081967213114754" width="2.8125" x="24.727776082977424" y="12.6026825633383"/>
    <rect fill="#e0e0e0" height="2.7049180327868854" width="0.46875" x="27.071526082977424" y="10.348584202682563"/>
    <rect fill="#e0e0e0" height="0.45081967213114754" width="2.53125" x="27.071526082977424" y="10.348584202682563"/>
    <rect fill="#e0e0e0" height="2.7049180327868854" width="0.46875" x="29.134026082977424" y="10.348584202682563"/>
    <rect fill="#e0e0e0" height="0.45081967213114754" width="2.8125" x="29.134026082977424" y="12.6026825633383"/>
    <rect fill="#e0e0e0" height="2.7049180327868854" width="0.46875" x="31.477776082977424" y="10.348584202682563"/>
    <rect fill="#e0e0e0" height="0.45081967213114754" width="2.34375" x="31.477776082977424" y="10.348584202682563"/>
    <rect fill="#e0e0e0" height="3.9672131147540988" width="0.46875" x="33.35277608297743" y="10.348584202682563"/>
    <rect fill="#4e4c4c" height="0.2" width="2.6" x="18.452776082977422" y="28.92727272727273"/>
    <g transform="translate(16.267135436922324,28.22727272727273)">
        <rect fill="#4e4c4c" height="1.6" rx="0.3" ry="0.3" transform="skewX(-15)" width="1.8" x="0" y="0"/>
    </g>
    <text dominant-baseline="central" fill="white" font-family="Consolas" font-size="1.2" text-anchor="middle" x="16.952776082977426" y="29.02727272727273">1</text>
    <g transform="translate(12.667135436922322,28.22727272727273)">
        <rect fill="#800000" height="1.6" rx="0.3" ry="0.3" transform="skewX(-15)" width="3.4" x="0" y="0"/>
    </g>
    <text dominant-baseline="central" fill="white" font-family="Consolas" font-size="1.2" text-anchor="middle" x="14.152776082977423" y="29.02727272727273">P8</text>
    <g transform="translate(9.067135436922323,28.22727272727273)">
        <rect fill="#afa35e" height="1.6" rx="0.3" ry="0.3" transform="skewX(-15)" width="3.4" x="0" y="0"/>
    </g>
    <text dominant-baseline="central" fill="#423F42" font-family="Consolas" font-size="1.2" text-anchor="middle" x="10.552776082977424" y="29.02727272727273">PWM2</text>
    <rect fill="#4e4c4c" height="0.2" width="2.6" x="18.452776082977422" y="30.927272727272722"/>
    <g transform="translate(16.267135436922324,30.227272727272723)">
        <rect fill="#4e4c4c" height="1.6" rx="0.3" ry="0.3" transform="skewX(-15)" width="1.8" x="0" y="0"/>
    </g>
    <text dominant-baseline="central" fill="white" font-family="Consolas" font-size="1.2" text-anchor="middle" x="16.952776082977426" y="31.027272727272724">2</text>
    <g transform="translate(12.667135436922322,30.227272727272723)">
        <rect fill="#800000" height="1.6" rx="0.3" ry="0.3" transform="skewX(-15)" width="3.4" x="0" y="0"/>
    </g>
    <text dominant-baseline="central" fill="white" font-family="Consolas" font-size="1.2" text-anchor="middle" x="14.152776082977423" y="31.027272727272724">P7</text>
    <g transform="translate(9.067135436922323,30.227272727272723)">
        <rect fill="#afa35e" height="1.6" rx="0.3" ry="0.3" transform="skewX(-15)" width="3.4" x="0" y="0"/>
    </g>
    <text dominant-baseline="central" fill="#423F42" font-family="Consolas" font-size="1.2" text-anchor="middle" x="10.552776082977424" y="31.027272727272724">PWM1</text>
    <rect fill="#4e4c4c" height="0.2" width="2.6" x="18.452776082977422" y="32.92727272727272"/>
    <g transform="translate(16.267135436922324,32.22727272727273)">
        <rect fill="#4e4c4c" height="1.6" rx="0.3" ry="0.3" transform="skewX(-15)" width="1.8" x="0" y="0"/>
    </g>
    <text dominant-baseline="central" fill="white" font-family="Consolas" font-size="1.2" text-anchor="middle" x="16.952776082977426" y="33.027272727272724">3</text>
    <g transform="translate(12.667135436922322,32.22727272727273)">
        <rect fill="#800000" height="1.6" rx="0.3" ry="0.3" transform="skewX(-15)" width="3.4" x="0" y="0"/>
    </g>
    <text dominant-baseline="central" fill="white" font-family="Consolas" font-size="1.2" text-anchor="middle" x="14.152776082977423" y="33.027272727272724">P6</text>
    <g transform="translate(9.067135436922323,32.22727272727273)">
        <rect fill="#afa35e" height="1.6" rx="0.3" ry="0.3" transform="skewX(-15)" width="3.4" x="0" y="0"/>
    </g>
    <text dominant-baseline="central" fill="#423F42" font-family="Consolas" font-size="1.2" text-anchor="middle" x="10.552776082977424" y="33.027272727272724">PWM0</text>
    <rect fill="#4e4c4c" height="0.2" width="2.6" x="18.452776082977422" y="34.92727272727272"/>
    <g transform="translate(16.267135436922324,34.22727272727273)">
        <rect fill="#4e4c4c" height="1.6" rx="0.3" ry="0.3" transform="skewX(-15)" width="1.8" x="0" y="0"/>
    </g>
    <text dominant-baseline="central" fill="white" font-family="Consolas" font-size="1.2" text-anchor="middle" x="16.952776082977426" y="35.027272727272724">4</text>
    <g transform="translate(12.667135436922322,34.22727272727273)">
        <rect fill="#800000" height="1.6" rx="0.3" ry="0.3" transform="skewX(-15)" width="3.4" x="0" y="0"/>
    </g>
    <text dominant-baseline="central" fill="white" font-family="Consolas" font-size="1.2" text-anchor="middle" x="14.152776082977423" y="35.027272727272724">P26</text>
    <g transform="translate(9.067135436922323,34.22727272727273)">
        <rect fill="#aeafc1" height="1.6" rx="0.3" ry="0.3" transform="skewX(-15)" width="3.4" x="0" y="0"/>
    </g>
    <text dominant-baseline="central" fill="#423F42" font-family="Consolas" font-size="1.2" text-anchor="middle" x="10.552776082977424" y="35.027272727272724">IRDA</text>
    <g transform="translate(5.467135436922323,34.22727272727273)">
        <rect fill="#afa35e" height="1.6" rx="0.3" ry="0.3" transform="skewX(-15)" width="3.4" x="0" y="0"/>
    </g>
    <text dominant-baseline="central" fill="#423F42" font-family="Consolas" font-size="1.2" text-anchor="middle" x="6.952776082977425" y="35.027272727272724">PWM5</text>
    <rect fill="#4e4c4c" height="0.2" width="2.6" x="35.552776082977424" y="34.92727272727272"/>
    <g transform="translate(38.96713543692233,34.22727272727273)">
        <rect fill="#4e4c4c" height="1.6" rx="0.3" ry="0.3" transform="skewX(-15)" width="1.8" x="0" y="0"/>
    </g>
    <text dominant-baseline="central" fill="white" font-family="Consolas" font-size="1.2" text-anchor="middle" x="39.652776082977425" y="35.027272727272724">5</text>
    <g transform="translate(40.96713543692233,34.22727272727273)">
        <rect fill="#800000" height="1.6" rx="0.3" ry="0.3" transform="skewX(-15)" width="3.4" x="0" y="0"/>
    </g>
    <text dominant-baseline="central" fill="white" font-family="Consolas" font-size="1.2" text-anchor="middle" x="42.45277608297743" y="35.027272727272724">P24</text>
    <g transform="translate(44.56713543692233,34.22727272727273)">
        <rect fill="#afa35e" height="1.6" rx="0.3" ry="0.3" transform="skewX(-15)" width="3.4" x="0" y="0"/>
    </g>
    <text dominant-baseline="central" fill="#423F42" font-family="Consolas" font-size="1.2" text-anchor="middle" x="46.05277608297743" y="35.027272727272724">PWM4</text>
    <rect fill="#4e4c4c" height="0.2" width="2.6" x="35.552776082977424" y="32.92727272727272"/>
    <g transform="translate(38.96713543692233,32.22727272727273)">
        <rect fill="#4e4c4c" height="1.6" rx="0.3" ry="0.3" transform="skewX(-15)" width="1.8" x="0" y="0"/>
    </g>
    <text dominant-baseline="central" fill="white" font-family="Consolas" font-size="1.2" text-anchor="middle" x="39.652776082977425" y="33.027272727272724">6</text>
    <g transform="translate(40.96713543692233,32.22727272727273)">
        <rect fill="#000" height="1.6" rx="0.3" ry="0.3" transform="skewX(-15)" width="3.4" x="0" y="0"/>
    </g>
    <text dominant-baseline="central" fill="white" font-family="Consolas" font-size="1.2" text-anchor="middle" x="42.45277608297743" y="33.027272727272724">GND</text>
    <rect fill="#4e4c4c" height="0.2" width="2.6" x="35.552776082977424" y="30.927272727272722"/>
    <g transform="translate(38.96713543692233,30.227272727272723)">
        <rect fill="#4e4c4c" height="1.6" rx="0.3" ry="0.3" transform="skewX(-15)" width="1.8" x="0" y="0"/>
    </g>
    <text dominant-baseline="central" fill="white" font-family="Consolas" font-size="1.2" text-anchor="middle" x="39.652776082977425" y="31.027272727272724">7</text>
    <g transform="translate(40.96713543692233,30.227272727272723)">
        <rect fill="#cd3c24" height="1.6" rx="0.3" ry="0.3" transform="skewX(-15)" width="3.4" x="0" y="0"/>
    </g>
    <text dominant-baseline="central" fill="white" font-family="Consolas" font-size="1.2" text-anchor="middle" x="42.45277608297743" y="31.027272727272724">3V3</text>
    <linearGradient gradientUnits="objectBoundingBox" id="id3" x1="1.0" x2="0.0" y1="0.0" y2="1.0">
        <stop offset="0%" stop-color="#f9f9f9"/>
        <stop offset="100%" stop-color="#ededed"/>
    </linearGradient>
    <rect fill="url(#id3) none" height="17.2" stroke="#b5a739" stroke-width="0.1" width="14.9" x="74.09823062843196" y="16.327272727272724"/>
    <rect fill="#e5b472" height="1.7" id="r_pins_horz.pin1.trace" width="1.2" x="74.94823062843197" y="31.877272727272725"/>
    <circle cx="75.54823062843197" cy="33.57727272727273" fill="#fff" id="r_pins_horz.pin1.cast" r="0.35"/>
    <circle cx="75.54823062843197" cy="32.527272727272724" fill="#fff" id="r_pins_horz.pin1.hole" r="0.35"/>
    <rect fill="#e5b472" height="1.7" id="r_pins_horz.pin2.trace" width="1.2" x="76.94823062843197" y="31.877272727272725"/>
    <circle cx="77.54823062843197" cy="33.57727272727273" fill="#fff" id="r_pins_horz.pin2.cast" r="0.35"/>
    <circle cx="77.54823062843197" cy="32.527272727272724" fill="#fff" id="r_pins_horz.pin2.hole" r="0.35"/>
    <rect fill="#e5b472" height="1.7" id="r_pins_horz.pin3.trace" width="1.2" x="78.94823062843197" y="31.877272727272725"/>
    <circle cx="79.54823062843197" cy="33.57727272727273" fill="#fff" id="r_pins_horz.pin3.cast" r="0.35"/>
    <circle cx="79.54823062843197" cy="32.527272727272724" fill="#fff" id="r_pins_horz.pin3.hole" r="0.35"/>
    <rect fill="#e5b472" height="1.7" id="r_pins_horz.pin4.trace" width="1.2" x="80.94823062843197" y="31.877272727272725"/>
    <circle cx="81.54823062843197" cy="33.57727272727273" fill="#fff" id="r_pins_horz.pin4.cast" r="0.35"/>
    <circle cx="81.54823062843197" cy="32.527272727272724" fill="#fff" id="r_pins_horz.pin4.hole" r="0.35"/>
    <rect fill="#e5b472" height="1.7" id="r_pins_horz.pin5.trace" width="1.2" x="82.94823062843197" y="31.877272727272725"/>
    <circle cx="83.54823062843197" cy="33.57727272727273" fill="#fff" id="r_pins_horz.pin5.cast" r="0.35"/>
    <circle cx="83.54823062843197" cy="32.527272727272724" fill="#fff" id="r_pins_horz.pin5.hole" r="0.35"/>
    <rect fill="#e5b472" height="1.7" id="r_pins_horz.pin6.trace" width="1.2" x="84.94823062843197" y="31.877272727272725"/>
    <circle cx="85.54823062843197" cy="33.57727272727273" fill="#fff" id="r_pins_horz.pin6.cast" r="0.35"/>
    <circle cx="85.54823062843197" cy="32.527272727272724" fill="#fff" id="r_pins_horz.pin6.hole" r="0.35"/>
    <rect fill="#e5b472" height="1.7" id="r_pins_horz.pin7.trace" width="1.2" x="86.94823062843197" y="31.877272727272725"/>
    <circle cx="87.54823062843197" cy="33.57727272727273" fill="#fff" id="r_pins_horz.pin7.cast" r="0.35"/>
    <circle cx="87.54823062843197" cy="32.527272727272724" fill="#fff" id="r_pins_horz.pin7.hole" r="0.35"/>
    <circle cx="75.54823062843197" cy="23.777272727272724" fill="#e5b472" r="0.5"/>
    <rect fill="#4e4c4c" height="2.7" width="0.2" x="74.34823062843196" y="21.177272727272722"/>
    <rect fill="#4e4c4c" height="0.2" width="0.4" x="74.44823062843197" y="23.677272727272722"/>
    <rect height="0.0" id="label_line_down.anchor" width="0.0" x="74.34823062843196" y="23.777272727272724"/>
    <rect height="0.0" id="wb2l.back.rst.anchor" width="0.0" x="148.99646125686394" y="37.55454545454545"/>
    <circle cx="76.24823062843197" cy="22.177272727272722" fill="#e5b472" r="0.5"/>
    <rect fill="#4e4c4c" height="2.0" width="0.2" x="76.14823062843196" y="19.177272727272722"/>
    <rect fill="#4e4c4c" height="0.2" width="1.7" x="74.44823062843197" y="19.177272727272722"/>
    <rect height="0.0" id="wb2l.back.u1_rxd.anchor" width="0.0" x="148.99646125686394" y="35.55454545454545"/>
    <circle cx="78.04823062843197" cy="22.177272727272722" fill="#e5b472" r="0.5"/>
    <rect fill="#4e4c4c" height="4.0" width="0.2" x="77.94823062843197" y="17.177272727272722"/>
    <rect fill="#4e4c4c" height="0.2" width="3.5" x="74.44823062843197" y="17.177272727272722"/>
    <rect height="0.0" id="wb2l.back.u1_txd.anchor" width="0.0" x="148.99646125686394" y="33.55454545454545"/>
    <circle cx="79.74823062843197" cy="22.177272727272722" fill="#e5b472" r="0.5"/>
    <rect fill="#4e4c4c" height="6.0" width="0.2" x="79.64823062843196" y="15.177272727272722"/>
    <rect fill="#4e4c4c" height="0.2" width="5.2" x="74.44823062843197" y="15.177272727272722"/>
    <rect height="0.0" id="wb2l.back.u2_rxd.anchor" width="0.0" x="148.99646125686394" y="31.554545454545448"/>
    <circle cx="81.34823062843196" cy="22.177272727272722" fill="#e5b472" r="0.5"/>
    <rect fill="#4e4c4c" height="8.0" width="0.2" x="81.24823062843197" y="13.177272727272724"/>
    <rect fill="#4e4c4c" height="0.2" width="6.8" x="74.44823062843197" y="13.177272727272724"/>
    <rect height="0.0" id="wb2l.back.u2_txd.anchor" width="0.0" x="148.99646125686394" y="29.554545454545448"/>
    <circle cx="83.24823062843197" cy="22.177272727272722" fill="#e5b472" r="0.5"/>
    <rect fill="#4e4c4c" height="10.0" width="0.2" x="83.14823062843196" y="11.177272727272724"/>
    <rect fill="#4e4c4c" height="0.2" width="8.7" x="74.44823062843196" y="11.177272727272724"/>
    <rect height="0.0" id="wb2l.back.gnd.anchor" width="0.0" x="148.99646125686394" y="27.554545454545448"/>
    <circle cx="76.24823062843197" cy="26.977272727272723" fill="#e5b472" r="0.5"/>
    <rect fill="#4e4c4c" height="1.0" width="0.2" x="76.14823062843196" y="24.977272727272727"/>
    <rect fill="#4e4c4c" height="0.2" width="1.7" x="74.44823062843197" y="24.977272727272727"/>
    <rect height="0.0" id="wb2l.back.f_sck.anchor" width="0.0" x="148.99646125686394" y="41.354545454545445"/>
    <circle cx="76.24823062843197" cy="28.277272727272724" fill="#e5b472" r="0.5"/>
    <rect fill="#4e4c4c" height="1.0" width="0.2" x="76.14823062843196" y="29.277272727272724"/>
    <rect fill="#4e4c4c" height="0.2" width="1.7" x="74.44823062843197" y="30.077272727272724"/>
    <rect height="0.0" id="wb2l.back.f_csn.anchor" width="0.0" x="148.99646125686394" y="46.454545454545446"/>
    <circle cx="77.54823062843197" cy="29.777272727272724" fill="#e5b472" r="0.5"/>
    <rect fill="#4e4c4c" height="1.5" width="0.2" x="77.44823062843197" y="30.777272727272724"/>
    <rect fill="#4e4c4c" height="0.2" width="3.0" x="74.44823062843197" y="32.07727272727273"/>
    <rect height="0.0" id="wb2l.back.f_so.anchor" width="0.0" x="148.99646125686394" y="48.454545454545446"/>
    <circle cx="79.24823062843197" cy="29.777272727272724" fill="#e5b472" r="0.5"/>
    <rect fill="#4e4c4c" height="3.5" width="0.2" x="79.14823062843196" y="30.777272727272724"/>
    <rect fill="#4e4c4c" height="0.2" width="4.7" x="74.44823062843197" y="34.07727272727273"/>
    <rect height="0.0" id="wb2l.back.f_si.anchor" width="0.0" x="148.99646125686394" y="50.454545454545446"/>
    <rect fill="#4e4c4c" height="0.2" width="2.6" x="71.84823062843196" y="11.177272727272724"/>
    <g transform="translate(68.06258998237686,10.477272727272723)">
        <rect fill="#000" height="1.6" rx="0.3" ry="0.3" transform="skewX(-15)" width="3.4" x="0" y="0"/>
    </g>
    <text dominant-baseline="central" fill="white" font-family="Consolas" font-size="1.2" text-anchor="middle" x="69.54823062843197" y="11.277272727272724">GND</text>
    <rect fill="#4e4c4c" height="0.2" width="2.6" x="71.84823062843198" y="21.177272727272722"/>
    <g transform="translate(68.06258998237686,20.477272727272723)">
        <rect fill="#ed602e" height="1.6" rx="0.3" ry="0.3" transform="skewX(-15)" width="3.4" x="0" y="0"/>
    </g>
    <text dominant-baseline="central" fill="#423F42" font-family="Consolas" font-size="1.2" text-anchor="middle" x="69.54823062843197" y="21.277272727272724">CEN</text>
    <rect fill="#4e4c4c" height="0.2" width="2.6" x="71.84823062843198" y="19.177272727272722"/>
    <g transform="translate(68.06258998237686,18.477272727272723)">
        <rect fill="#800000" height="1.6" rx="0.3" ry="0.3" transform="skewX(-15)" width="3.4" x="0" y="0"/>
    </g>
    <text dominant-baseline="central" fill="white" font-family="Consolas" font-size="1.2" text-anchor="middle" x="69.54823062843197" y="19.277272727272724">P10</text>
    <g transform="translate(64.46258998237687,18.477272727272723)">
        <rect fill="#dcd4ee" height="1.6" rx="0.3" ry="0.3" transform="skewX(-15)" width="3.4" x="0" y="0"/>
    </g>
    <text dominant-baseline="central" fill="#423F42" font-family="Consolas" font-size="1.2" text-anchor="middle" x="65.94823062843197" y="19.277272727272724">RX1</text>
    <rect fill="#4e4c4c" height="0.2" width="2.6" x="71.84823062843198" y="17.177272727272722"/>
    <g transform="translate(68.06258998237686,16.477272727272723)">
        <rect fill="#800000" height="1.6" rx="0.3" ry="0.3" transform="skewX(-15)" width="3.4" x="0" y="0"/>
    </g>
    <text dominant-baseline="central" fill="white" font-family="Consolas" font-size="1.2" text-anchor="middle" x="69.54823062843197" y="17.277272727272724">P11</text>
    <g transform="translate(64.46258998237687,16.477272727272723)">
        <rect fill="#dcd4ee" height="1.6" rx="0.3" ry="0.3" transform="skewX(-15)" width="3.4" x="0" y="0"/>
    </g>
    <text dominant-baseline="central" fill="#423F42" font-family="Consolas" font-size="1.2" text-anchor="middle" x="65.94823062843197" y="17.277272727272724">TX1</text>
    <rect fill="#4e4c4c" height="0.2" width="2.6" x="71.84823062843198" y="15.177272727272724"/>
    <g transform="translate(68.06258998237686,14.477272727272723)">
        <rect fill="#800000" height="1.6" rx="0.3" ry="0.3" transform="skewX(-15)" width="3.4" x="0" y="0"/>
    </g>
    <text dominant-baseline="central" fill="white" font-family="Consolas" font-size="1.2" text-anchor="middle" x="69.54823062843197" y="15.277272727272724">P1</text>
    <g transform="translate(64.46258998237687,14.477272727272723)">
        <rect fill="#dcd4ee" height="1.6" rx="0.3" ry="0.3" transform="skewX(-15)" width="3.4" x="0" y="0"/>
    </g>
    <text dominant-baseline="central" fill="#423F42" font-family="Consolas" font-size="1.2" text-anchor="middle" x="65.94823062843197" y="15.277272727272724">RX2</text>
    <g transform="translate(60.86258998237686,14.477272727272723)">
        <rect fill="#f95" height="1.6" rx="0.3" ry="0.3" transform="skewX(-15)" width="3.4" x="0" y="0"/>
    </g>
    <text dominant-baseline="central" fill="#423F42" font-family="Consolas" font-size="1.2" text-anchor="middle" x="62.34823062843196" y="15.277272727272724">SDA2</text>
    <rect fill="#4e4c4c" height="0.2" width="2.6" x="71.84823062843198" y="13.177272727272724"/>
    <g transform="translate(68.06258998237686,12.477272727272723)">
        <rect fill="#800000" height="1.6" rx="0.3" ry="0.3" transform="skewX(-15)" width="3.4" x="0" y="0"/>
    </g>
    <text dominant-baseline="central" fill="white" font-family="Consolas" font-size="1.2" text-anchor="middle" x="69.54823062843197" y="13.277272727272724">P0</text>
    <g transform="translate(64.46258998237687,12.477272727272723)">
        <rect fill="#dcd4ee" height="1.6" rx="0.3" ry="0.3" transform="skewX(-15)" width="3.4" x="0" y="0"/>
    </g>
    <text dominant-baseline="central" fill="#423F42" font-family="Consolas" font-size="1.2" text-anchor="middle" x="65.94823062843197" y="13.277272727272724">TX2</text>
    <g transform="translate(60.86258998237686,12.477272727272723)">
        <rect fill="#f95" height="1.6" rx="0.3" ry="0.3" transform="skewX(-15)" width="3.4" x="0" y="0"/>
    </g>
    <text dominant-baseline="central" fill="#423F42" font-family="Consolas" font-size="1.2" text-anchor="middle" x="62.34823062843196" y="13.277272727272724">SCL2</text>
    <rect fill="#4e4c4c" height="0.2" width="2.6" x="71.84823062843198" y="24.977272727272723"/>
    <g transform="translate(68.06258998237686,24.277272727272724)">
        <rect fill="#800000" height="1.6" rx="0.3" ry="0.3" transform="skewX(-15)" width="3.4" x="0" y="0"/>
    </g>
    <text dominant-baseline="central" fill="white" font-family="Consolas" font-size="1.2" text-anchor="middle" x="69.54823062843197" y="25.077272727272724">P20</text>
    <g transform="translate(64.46258998237687,24.277272727272724)">
        <rect fill="#f95" height="1.6" rx="0.3" ry="0.3" transform="skewX(-15)" width="3.4" x="0" y="0"/>
    </g>
    <text dominant-baseline="central" fill="#423F42" font-family="Consolas" font-size="1.2" text-anchor="middle" x="65.94823062843197" y="25.077272727272724">SCL1</text>
    <g transform="translate(60.86258998237686,24.277272727272724)">
        <rect fill="#ffe680" height="1.6" rx="0.3" ry="0.3" transform="skewX(-15)" width="3.4" x="0" y="0"/>
    </g>
    <text dominant-baseline="central" fill="#423F42" font-family="Consolas" font-size="1.2" text-anchor="middle" x="62.34823062843196" y="25.077272727272724">TCK</text>
    <g transform="translate(57.262589982376866,24.277272727272724)">
        <rect fill="#f68a1e" height="1.6" rx="0.3" ry="0.3" transform="skewX(-15)" width="3.4" x="0" y="0"/>
    </g>
    <text dominant-baseline="central" fill="#423F42" font-family="Consolas" font-size="1.2" text-anchor="middle" x="58.74823062843197" y="25.077272727272724">FSCK</text>
    <rect fill="#4e4c4c" height="0.2" width="2.6" x="71.84823062843198" y="30.07727272727272"/>
    <g transform="translate(68.06258998237686,29.37727272727272)">
        <rect fill="#800000" height="1.6" rx="0.3" ry="0.3" transform="skewX(-15)" width="3.4" x="0" y="0"/>
    </g>
    <text dominant-baseline="central" fill="white" font-family="Consolas" font-size="1.2" text-anchor="middle" x="69.54823062843197" y="30.177272727272722">P21</text>
    <g transform="translate(64.46258998237687,29.37727272727272)">
        <rect fill="#f95" height="1.6" rx="0.3" ry="0.3" transform="skewX(-15)" width="3.4" x="0" y="0"/>
    </g>
    <text dominant-baseline="central" fill="#423F42" font-family="Consolas" font-size="1.2" text-anchor="middle" x="65.94823062843197" y="30.177272727272722">SDA1</text>
    <g transform="translate(60.86258998237686,29.37727272727272)">
        <rect fill="#ffe680" height="1.6" rx="0.3" ry="0.3" transform="skewX(-15)" width="3.4" x="0" y="0"/>
    </g>
    <text dominant-baseline="central" fill="#423F42" font-family="Consolas" font-size="1.2" text-anchor="middle" x="62.34823062843196" y="30.177272727272722">TMS</text>
    <g transform="translate(57.262589982376866,29.37727272727272)">
        <rect fill="#f68a1e" height="1.6" rx="0.3" ry="0.3" transform="skewX(-15)" width="3.4" x="0" y="0"/>
    </g>
    <text dominant-baseline="middle" fill="#423F42" font-family="Consolas" font-size="1.2" text-anchor="middle" x="58.74823062843197" y="29.164772727272723">___</text>
    <text dominant-baseline="central" fill="#423F42" font-family="Consolas" font-size="1.2" text-anchor="middle" x="58.74823062843197" y="30.28352272727272">FCS</text>
    <rect fill="#4e4c4c" height="0.2" width="2.6" x="71.84823062843198" y="32.07727272727272"/>
    <g transform="translate(68.06258998237686,31.37727272727272)">
        <rect fill="#800000" height="1.6" rx="0.3" ry="0.3" transform="skewX(-15)" width="3.4" x="0" y="0"/>
    </g>
    <text dominant-baseline="central" fill="white" font-family="Consolas" font-size="1.2" text-anchor="middle" x="69.54823062843197" y="32.17727272727272">P23</text>
    <g transform="translate(64.46258998237687,31.37727272727272)">
        <rect fill="#8ad039" height="1.6" rx="0.3" ry="0.3" transform="skewX(-15)" width="3.4" x="0" y="0"/>
    </g>
    <text dominant-baseline="central" fill="#423F42" font-family="Consolas" font-size="1.2" text-anchor="middle" x="65.94823062843197" y="32.17727272727272">ADC3</text>
    <g transform="translate(60.86258998237686,31.37727272727272)">
        <rect fill="#ffe680" height="1.6" rx="0.3" ry="0.3" transform="skewX(-15)" width="3.4" x="0" y="0"/>
    </g>
    <text dominant-baseline="central" fill="#423F42" font-family="Consolas" font-size="1.2" text-anchor="middle" x="62.34823062843196" y="32.17727272727272">TDO</text>
    <g transform="translate(57.262589982376866,31.37727272727272)">
        <rect fill="#f68a1e" height="1.6" rx="0.3" ry="0.3" transform="skewX(-15)" width="3.4" x="0" y="0"/>
    </g>
    <text dominant-baseline="central" fill="#423F42" font-family="Consolas" font-size="1.2" text-anchor="middle" x="58.74823062843197" y="32.17727272727272">FSO</text>
    <rect fill="#4e4c4c" height="0.2" width="2.6" x="71.84823062843198" y="34.07727272727272"/>
    <g transform="translate(68.06258998237686,33.377272727272725)">
        <rect fill="#800000" height="1.6" rx="0.3" ry="0.3" transform="skewX(-15)" width="3.4" x="0" y="0"/>
    </g>
    <text dominant-baseline="central" fill="white" font-family="Consolas" font-size="1.2" text-anchor="middle" x="69.54823062843197" y="34.17727272727272">P22</text>
    <g transform="translate(64.46258998237687,33.377272727272725)">
        <rect fill="#ffe680" height="1.6" rx="0.3" ry="0.3" transform="skewX(-15)" width="3.4" x="0" y="0"/>
    </g>
    <text dominant-baseline="central" fill="#423F42" font-family="Consolas" font-size="1.2" text-anchor="middle" x="65.94823062843197" y="34.17727272727272">TDI</text>
    <g transform="translate(60.86258998237686,33.377272727272725)">
        <rect fill="#f68a1e" height="1.6" rx="0.3" ry="0.3" transform="skewX(-15)" width="3.4" x="0" y="0"/>
    </g>
    <text dominant-baseline="central" fill="#423F42" font-family="Consolas" font-size="1.2" text-anchor="middle" x="62.34823062843196" y="34.17727272727272">FSI</text>
</svg>
