<?xml version="1.0" encoding="utf-8" ?>
<svg xmlns="http://www.w3.org/2000/svg" xmlns:ev="http://www.w3.org/2001/xml-events" xmlns:xlink="http://www.w3.org/1999/xlink" baseProfile="full" height="500" version="1.1" viewBox="0,0,93.0909090909091,45.45454545454545" width="1024">
    <defs/>
    <rect fill="white" height="45.45454545454545" stroke="black" stroke-width="0.1" width="93.0909090909091" x="0" y="0"/>
    <linearGradient gradientUnits="objectBoundingBox" id="id1" x1="1.0" x2="0.0" y1="0.0" y2="1.0">
        <stop offset="0%" stop-color="#f9f9f9"/>
        <stop offset="100%" stop-color="#ededed"/>
    </linearGradient>
    <rect fill="url(#id1) none" height="17.2" stroke="#b5a739" stroke-width="0.1" width="14.9" x="22.743489126029985" y="9.677272727272728"/>
    <linearGradient gradientUnits="objectBoundingBox" id="id2" x1="1.0" x2="0.0" y1="0.0" y2="1.0">
        <stop offset="0%" stop-color="whitesmoke"/>
        <stop offset="100%" stop-color="#999"/>
    </linearGradient>
    <rect fill="url(#id2) none" height="9.0" rx="0.5" ry="0.5" width="13.6" x="23.393489126029984" y="15.627272727272727"/>
    <rect fill="#e5b472" height="1.7" id="r_pins_horz.pin1.trace" width="1.2" x="23.593489126029983" y="25.227272727272727"/>
    <circle cx="24.193489126029984" cy="26.92727272727273" fill="#fff" id="r_pins_horz.pin1.cast" r="0.35"/>
    <circle cx="24.193489126029984" cy="25.877272727272725" fill="#fff" id="r_pins_horz.pin1.hole" r="0.35"/>
    <rect fill="#e5b472" height="1.7" id="r_pins_horz.pin2.trace" width="1.2" x="25.593489126029983" y="25.227272727272727"/>
    <circle cx="26.193489126029984" cy="26.92727272727273" fill="#fff" id="r_pins_horz.pin2.cast" r="0.35"/>
    <circle cx="26.193489126029984" cy="25.877272727272725" fill="#fff" id="r_pins_horz.pin2.hole" r="0.35"/>
    <rect fill="#e5b472" height="1.7" id="r_pins_horz.pin3.trace" width="1.2" x="27.593489126029986" y="25.227272727272727"/>
    <circle cx="28.193489126029984" cy="26.92727272727273" fill="#fff" id="r_pins_horz.pin3.cast" r="0.35"/>
    <circle cx="28.193489126029984" cy="25.877272727272725" fill="#fff" id="r_pins_horz.pin3.hole" r="0.35"/>
    <rect fill="#e5b472" height="1.7" id="r_pins_horz.pin4.trace" width="1.2" x="29.593489126029986" y="25.227272727272727"/>
    <circle cx="30.193489126029984" cy="26.92727272727273" fill="#fff" id="r_pins_horz.pin4.cast" r="0.35"/>
    <circle cx="30.193489126029984" cy="25.877272727272725" fill="#fff" id="r_pins_horz.pin4.hole" r="0.35"/>
    <rect fill="#e5b472" height="1.7" id="r_pins_horz.pin5.trace" width="1.2" x="31.593489126029986" y="25.227272727272727"/>
    <circle cx="32.19348912602999" cy="26.92727272727273" fill="#fff" id="r_pins_horz.pin5.cast" r="0.35"/>
    <circle cx="32.19348912602999" cy="25.877272727272725" fill="#fff" id="r_pins_horz.pin5.hole" r="0.35"/>
    <rect fill="#e5b472" height="1.7" id="r_pins_horz.pin6.trace" width="1.2" x="33.593489126029986" y="25.227272727272727"/>
    <circle cx="34.19348912602999" cy="26.92727272727273" fill="#fff" id="r_pins_horz.pin6.cast" r="0.35"/>
    <circle cx="34.19348912602999" cy="25.877272727272725" fill="#fff" id="r_pins_horz.pin6.hole" r="0.35"/>
    <rect fill="#e5b472" height="1.7" id="r_pins_horz.pin7.trace" width="1.2" x="35.593489126029986" y="25.227272727272727"/>
    <circle cx="36.19348912602999" cy="26.92727272727273" fill="#fff" id="r_pins_horz.pin7.cast" r="0.35"/>
    <circle cx="36.19348912602999" cy="25.877272727272725" fill="#fff" id="r_pins_horz.pin7.hole" r="0.35"/>
    <rect fill="#4e4c4c" height="2.0" width="0.2" x="24.093489126029983" y="27.127272727272725"/>
    <rect fill="#4e4c4c" height="0.2" width="0.2" x="23.893489126029984" y="28.92727272727273"/>
    <rect height="0.0" id="tuya2l.front.pins.label1.anchor" width="0.0" x="47.086978252059964" y="38.654545454545456"/>
    <rect fill="#4e4c4c" height="4.0" width="0.2" x="26.093489126029983" y="27.127272727272725"/>
    <rect fill="#4e4c4c" height="0.2" width="2.2" x="23.893489126029984" y="30.92727272727273"/>
    <rect height="0.0" id="tuya2l.front.pins.label2.anchor" width="0.0" x="47.086978252059964" y="40.65454545454545"/>
    <rect fill="#4e4c4c" height="6.0" width="0.2" x="28.093489126029986" y="27.127272727272725"/>
    <rect fill="#4e4c4c" height="0.2" width="4.2" x="23.893489126029984" y="32.92727272727273"/>
    <rect height="0.0" id="tuya2l.front.pins.label3.anchor" width="0.0" x="47.086978252059964" y="42.65454545454545"/>
    <rect fill="#4e4c4c" height="8.0" width="0.2" x="30.093489126029986" y="27.127272727272725"/>
    <rect fill="#4e4c4c" height="0.2" width="6.2" x="23.893489126029984" y="34.92727272727273"/>
    <rect height="0.0" id="tuya2l.front.pins.label4.anchor" width="0.0" x="47.086978252059964" y="44.65454545454545"/>
    <rect fill="#4e4c4c" height="8.0" width="0.2" x="32.093489126029986" y="27.127272727272725"/>
    <rect fill="#4e4c4c" height="0.2" width="6.2" x="32.19348912602999" y="34.92727272727273"/>
    <rect height="0.0" id="tuya2l.front.pins.label5.anchor" width="0.0" x="60.586978252059964" y="44.65454545454545"/>
    <rect fill="#4e4c4c" height="6.0" width="0.2" x="34.093489126029986" y="27.127272727272725"/>
    <rect fill="#4e4c4c" height="0.2" width="4.2" x="34.19348912602999" y="32.92727272727273"/>
    <rect height="0.0" id="tuya2l.front.pins.label6.anchor" width="0.0" x="60.586978252059964" y="42.65454545454545"/>
    <rect fill="#4e4c4c" height="4.0" width="0.2" x="36.093489126029986" y="27.127272727272725"/>
    <rect fill="#4e4c4c" height="0.2" width="2.2" x="36.19348912602999" y="30.92727272727273"/>
    <rect height="0.0" id="tuya2l.front.pins.label7.anchor" width="0.0" x="60.586978252059964" y="40.65454545454545"/>
    <text fill="#000" font-family="Consolas" font-size="1.0" x="26.693489126029984" y="15.127272727272727">CB2L</text>
    <rect fill="#e0e0e0" height="4.688524590163935" width="0.46875" x="23.724739126029984" y="10.348584202682563"/>
    <rect fill="#e0e0e0" height="0.45081967213114754" width="4.3125" x="23.724739126029984" y="10.348584202682563"/>
    <rect fill="#e0e0e0" height="4.688524590163935" width="0.46875" x="25.787239126029984" y="10.348584202682563"/>
    <rect fill="#e0e0e0" height="2.7049180327868854" width="0.46875" x="27.568489126029984" y="10.348584202682563"/>
    <rect fill="#e0e0e0" height="0.45081967213114754" width="2.8125" x="27.568489126029984" y="12.6026825633383"/>
    <rect fill="#e0e0e0" height="2.7049180327868854" width="0.46875" x="29.912239126029984" y="10.348584202682563"/>
    <rect fill="#e0e0e0" height="0.45081967213114754" width="2.53125" x="29.912239126029984" y="10.348584202682563"/>
    <rect fill="#e0e0e0" height="2.7049180327868854" width="0.46875" x="31.974739126029984" y="10.348584202682563"/>
    <rect fill="#e0e0e0" height="0.45081967213114754" width="2.8125" x="31.974739126029984" y="12.6026825633383"/>
    <rect fill="#e0e0e0" height="2.7049180327868854" width="0.46875" x="34.31848912602999" y="10.348584202682563"/>
    <rect fill="#e0e0e0" height="0.45081967213114754" width="2.34375" x="34.31848912602999" y="10.348584202682563"/>
    <rect fill="#e0e0e0" height="3.9672131147540988" width="0.46875" x="36.19348912602999" y="10.348584202682563"/>
    <rect fill="#4e4c4c" height="0.2" width="2.6" x="21.293489126029982" y="28.92727272727273"/>
    <g transform="translate(19.107848479974884,28.22727272727273)">
        <rect fill="#4e4c4c" height="1.6" rx="0.3" ry="0.3" transform="skewX(-15)" width="1.8" x="0" y="0"/>
    </g>
    <text dominant-baseline="central" fill="white" font-family="Consolas" font-size="1.2" text-anchor="middle" x="19.793489126029986" y="29.02727272727273">1</text>
    <g transform="translate(15.50784847997488,28.22727272727273)">
        <rect fill="#800000" height="1.6" rx="0.3" ry="0.3" transform="skewX(-15)" width="3.4" x="0" y="0"/>
    </g>
    <text dominant-baseline="central" fill="white" font-family="Consolas" font-size="1.2" text-anchor="middle" x="16.99348912602998" y="29.02727272727273">P8</text>
    <g transform="translate(11.907848479974882,28.22727272727273)">
        <rect fill="#afa35e" height="1.6" rx="0.3" ry="0.3" transform="skewX(-15)" width="3.4" x="0" y="0"/>
    </g>
    <text dominant-baseline="central" fill="#423F42" font-family="Consolas" font-size="1.2" text-anchor="middle" x="13.393489126029984" y="29.02727272727273">PWM2</text>
    <rect fill="#4e4c4c" height="0.2" width="2.6" x="21.293489126029982" y="30.927272727272722"/>
    <g transform="translate(19.107848479974884,30.227272727272723)">
        <rect fill="#4e4c4c" height="1.6" rx="0.3" ry="0.3" transform="skewX(-15)" width="1.8" x="0" y="0"/>
    </g>
    <text dominant-baseline="central" fill="white" font-family="Consolas" font-size="1.2" text-anchor="middle" x="19.793489126029986" y="31.027272727272724">2</text>
    <g transform="translate(15.50784847997488,30.227272727272723)">
        <rect fill="#800000" height="1.6" rx="0.3" ry="0.3" transform="skewX(-15)" width="3.4" x="0" y="0"/>
    </g>
    <text dominant-baseline="central" fill="white" font-family="Consolas" font-size="1.2" text-anchor="middle" x="16.99348912602998" y="31.027272727272724">P7</text>
    <g transform="translate(11.907848479974882,30.227272727272723)">
        <rect fill="#afa35e" height="1.6" rx="0.3" ry="0.3" transform="skewX(-15)" width="3.4" x="0" y="0"/>
    </g>
    <text dominant-baseline="central" fill="#423F42" font-family="Consolas" font-size="1.2" text-anchor="middle" x="13.393489126029984" y="31.027272727272724">PWM1</text>
    <rect fill="#4e4c4c" height="0.2" width="2.6" x="21.293489126029982" y="32.92727272727272"/>
    <g transform="translate(19.107848479974884,32.22727272727273)">
        <rect fill="#4e4c4c" height="1.6" rx="0.3" ry="0.3" transform="skewX(-15)" width="1.8" x="0" y="0"/>
    </g>
    <text dominant-baseline="central" fill="white" font-family="Consolas" font-size="1.2" text-anchor="middle" x="19.793489126029986" y="33.027272727272724">3</text>
    <g transform="translate(15.507848479974884,32.22727272727273)">
        <rect fill="#800000" height="1.6" rx="0.3" ry="0.3" transform="skewX(-15)" width="3.4" x="0" y="0"/>
    </g>
    <text dominant-baseline="central" fill="white" font-family="Consolas" font-size="1.2" text-anchor="middle" x="16.993489126029985" y="33.027272727272724">P6</text>
    <g transform="translate(11.907848479974882,32.22727272727273)">
        <rect fill="#afa35e" height="1.6" rx="0.3" ry="0.3" transform="skewX(-15)" width="3.4" x="0" y="0"/>
    </g>
    <text dominant-baseline="central" fill="#423F42" font-family="Consolas" font-size="1.2" text-anchor="middle" x="13.393489126029984" y="33.027272727272724">PWM0</text>
    <rect fill="#4e4c4c" height="0.2" width="2.6" x="21.293489126029982" y="34.92727272727272"/>
    <g transform="translate(19.107848479974884,34.22727272727273)">
        <rect fill="#4e4c4c" height="1.6" rx="0.3" ry="0.3" transform="skewX(-15)" width="1.8" x="0" y="0"/>
    </g>
    <text dominant-baseline="central" fill="white" font-family="Consolas" font-size="1.2" text-anchor="middle" x="19.793489126029986" y="35.027272727272724">4</text>
    <g transform="translate(15.507848479974884,34.22727272727273)">
        <rect fill="#800000" height="1.6" rx="0.3" ry="0.3" transform="skewX(-15)" width="3.4" x="0" y="0"/>
    </g>
    <text dominant-baseline="central" fill="white" font-family="Consolas" font-size="1.2" text-anchor="middle" x="16.993489126029985" y="35.027272727272724">P26</text>
    <g transform="translate(11.907848479974882,34.22727272727273)">
        <rect fill="#aeafc1" height="1.6" rx="0.3" ry="0.3" transform="skewX(-15)" width="3.4" x="0" y="0"/>
    </g>
    <text dominant-baseline="central" fill="#423F42" font-family="Consolas" font-size="1.2" text-anchor="middle" x="13.393489126029984" y="35.027272727272724">IRDA</text>
    <g transform="translate(8.307848479974883,34.22727272727273)">
        <rect fill="#afa35e" height="1.6" rx="0.3" ry="0.3" transform="skewX(-15)" width="3.4" x="0" y="0"/>
    </g>
    <text dominant-baseline="central" fill="#423F42" font-family="Consolas" font-size="1.2" text-anchor="middle" x="9.793489126029984" y="35.027272727272724">PWM5</text>
    <rect fill="#4e4c4c" height="0.2" width="2.6" x="38.39348912602998" y="34.92727272727272"/>
    <g transform="translate(41.807848479974886,34.22727272727273)">
        <rect fill="#4e4c4c" height="1.6" rx="0.3" ry="0.3" transform="skewX(-15)" width="1.8" x="0" y="0"/>
    </g>
    <text dominant-baseline="central" fill="white" font-family="Consolas" font-size="1.2" text-anchor="middle" x="42.493489126029985" y="35.027272727272724">5</text>
    <g transform="translate(43.807848479974886,34.22727272727273)">
        <rect fill="#800000" height="1.6" rx="0.3" ry="0.3" transform="skewX(-15)" width="3.4" x="0" y="0"/>
    </g>
    <text dominant-baseline="central" fill="white" font-family="Consolas" font-size="1.2" text-anchor="middle" x="45.29348912602999" y="35.027272727272724">P24</text>
    <g transform="translate(47.40784847997489,34.22727272727273)">
        <rect fill="#afa35e" height="1.6" rx="0.3" ry="0.3" transform="skewX(-15)" width="3.4" x="0" y="0"/>
    </g>
    <text dominant-baseline="central" fill="#423F42" font-family="Consolas" font-size="1.2" text-anchor="middle" x="48.89348912602999" y="35.027272727272724">PWM4</text>
    <rect fill="#4e4c4c" height="0.2" width="2.6" x="38.39348912602998" y="32.92727272727272"/>
    <g transform="translate(41.807848479974886,32.22727272727273)">
        <rect fill="#4e4c4c" height="1.6" rx="0.3" ry="0.3" transform="skewX(-15)" width="1.8" x="0" y="0"/>
    </g>
    <text dominant-baseline="central" fill="white" font-family="Consolas" font-size="1.2" text-anchor="middle" x="42.493489126029985" y="33.027272727272724">6</text>
    <g transform="translate(43.807848479974886,32.22727272727273)">
        <rect fill="#000" height="1.6" rx="0.3" ry="0.3" transform="skewX(-15)" width="3.4" x="0" y="0"/>
    </g>
    <text dominant-baseline="central" fill="white" font-family="Consolas" font-size="1.2" text-anchor="middle" x="45.29348912602999" y="33.027272727272724">GND</text>
    <rect fill="#4e4c4c" height="0.2" width="2.6" x="38.39348912602998" y="30.927272727272722"/>
    <g transform="translate(41.807848479974886,30.227272727272723)">
        <rect fill="#4e4c4c" height="1.6" rx="0.3" ry="0.3" transform="skewX(-15)" width="1.8" x="0" y="0"/>
    </g>
    <text dominant-baseline="central" fill="white" font-family="Consolas" font-size="1.2" text-anchor="middle" x="42.493489126029985" y="31.027272727272724">7</text>
    <g transform="translate(43.807848479974886,30.227272727272723)">
        <rect fill="#cd3c24" height="1.6" rx="0.3" ry="0.3" transform="skewX(-15)" width="3.4" x="0" y="0"/>
    </g>
    <text dominant-baseline="central" fill="white" font-family="Consolas" font-size="1.2" text-anchor="middle" x="45.29348912602999" y="31.027272727272724">3V3</text>
    <linearGradient gradientUnits="objectBoundingBox" id="id3" x1="1.0" x2="0.0" y1="0.0" y2="1.0">
        <stop offset="0%" stop-color="#f9f9f9"/>
        <stop offset="100%" stop-color="#ededed"/>
    </linearGradient>
    <rect fill="url(#id3) none" height="17.2" stroke="#b5a739" stroke-width="0.1" width="14.9" x="73.33894367148453" y="14.852272727272727"/>
    <rect fill="#e5b472" height="1.7" id="r_pins_horz.pin1.trace" width="1.2" x="74.18894367148454" y="30.402272727272727"/>
    <circle cx="74.78894367148453" cy="32.10227272727273" fill="#fff" id="r_pins_horz.pin1.cast" r="0.35"/>
    <circle cx="74.78894367148453" cy="31.052272727272726" fill="#fff" id="r_pins_horz.pin1.hole" r="0.35"/>
    <rect fill="#e5b472" height="1.7" id="r_pins_horz.pin2.trace" width="1.2" x="76.18894367148454" y="30.402272727272727"/>
    <circle cx="76.78894367148453" cy="32.10227272727273" fill="#fff" id="r_pins_horz.pin2.cast" r="0.35"/>
    <circle cx="76.78894367148453" cy="31.052272727272726" fill="#fff" id="r_pins_horz.pin2.hole" r="0.35"/>
    <rect fill="#e5b472" height="1.7" id="r_pins_horz.pin3.trace" width="1.2" x="78.18894367148454" y="30.402272727272727"/>
    <circle cx="78.78894367148453" cy="32.10227272727273" fill="#fff" id="r_pins_horz.pin3.cast" r="0.35"/>
    <circle cx="78.78894367148453" cy="31.052272727272726" fill="#fff" id="r_pins_horz.pin3.hole" r="0.35"/>
    <rect fill="#e5b472" height="1.7" id="r_pins_horz.pin4.trace" width="1.2" x="80.18894367148454" y="30.402272727272727"/>
    <circle cx="80.78894367148453" cy="32.10227272727273" fill="#fff" id="r_pins_horz.pin4.cast" r="0.35"/>
    <circle cx="80.78894367148453" cy="31.052272727272726" fill="#fff" id="r_pins_horz.pin4.hole" r="0.35"/>
    <rect fill="#e5b472" height="1.7" id="r_pins_horz.pin5.trace" width="1.2" x="82.18894367148454" y="30.402272727272727"/>
    <circle cx="82.78894367148453" cy="32.10227272727273" fill="#fff" id="r_pins_horz.pin5.cast" r="0.35"/>
    <circle cx="82.78894367148453" cy="31.052272727272726" fill="#fff" id="r_pins_horz.pin5.hole" r="0.35"/>
    <rect fill="#e5b472" height="1.7" id="r_pins_horz.pin6.trace" width="1.2" x="84.18894367148454" y="30.402272727272727"/>
    <circle cx="84.78894367148453" cy="32.10227272727273" fill="#fff" id="r_pins_horz.pin6.cast" r="0.35"/>
    <circle cx="84.78894367148453" cy="31.052272727272726" fill="#fff" id="r_pins_horz.pin6.hole" r="0.35"/>
    <rect fill="#e5b472" height="1.7" id="r_pins_horz.pin7.trace" width="1.2" x="86.18894367148454" y="30.402272727272727"/>
    <circle cx="86.78894367148453" cy="32.10227272727273" fill="#fff" id="r_pins_horz.pin7.cast" r="0.35"/>
    <circle cx="86.78894367148453" cy="31.052272727272726" fill="#fff" id="r_pins_horz.pin7.hole" r="0.35"/>
    <circle cx="74.78894367148453" cy="22.302272727272726" fill="#e5b472" r="0.5"/>
    <rect fill="#4e4c4c" height="2.7" width="0.2" x="73.58894367148453" y="19.702272727272728"/>
    <rect fill="#4e4c4c" height="0.2" width="0.4" x="73.68894367148454" y="22.202272727272728"/>
    <rect height="0.0" id="label_line_down.anchor" width="0.0" x="73.58894367148453" y="22.302272727272726"/>
    <rect height="0.0" id="cb2l.back.u1_rxd.anchor" width="0.0" x="147.47788734296907" y="34.60454545454545"/>
    <circle cx="75.48894367148453" cy="20.702272727272728" fill="#e5b472" r="0.5"/>
    <rect fill="#4e4c4c" height="2.0" width="0.2" x="75.38894367148453" y="17.702272727272724"/>
    <rect fill="#4e4c4c" height="0.2" width="1.7" x="73.68894367148454" y="17.702272727272724"/>
    <rect height="0.0" id="cb2l.back.u2_txd.anchor" width="0.0" x="147.47788734296907" y="32.60454545454545"/>
    <circle cx="77.28894367148453" cy="20.702272727272728" fill="#e5b472" r="0.5"/>
    <rect fill="#4e4c4c" height="4.0" width="0.2" x="77.18894367148454" y="15.702272727272724"/>
    <rect fill="#4e4c4c" height="0.2" width="3.5" x="73.68894367148454" y="15.702272727272724"/>
    <rect height="0.0" id="cb2l.back.u1_txd.anchor" width="0.0" x="147.47788734296907" y="30.604545454545452"/>
    <circle cx="82.48894367148453" cy="20.702272727272728" fill="#e5b472" r="0.5"/>
    <rect fill="#4e4c4c" height="6.0" width="0.2" x="82.38894367148453" y="13.702272727272724"/>
    <rect fill="#4e4c4c" height="0.2" width="8.7" x="73.68894367148454" y="13.702272727272724"/>
    <rect height="0.0" id="cb2l.back.gnd.anchor" width="0.0" x="147.47788734296907" y="28.604545454545452"/>
    <circle cx="75.48894367148453" cy="25.502272727272725" fill="#e5b472" r="0.5"/>
    <rect fill="#4e4c4c" height="1.0" width="0.2" x="75.38894367148453" y="23.502272727272725"/>
    <rect fill="#4e4c4c" height="0.2" width="1.7" x="73.68894367148454" y="23.502272727272725"/>
    <rect height="0.0" id="cb2l.back.rst.anchor" width="0.0" x="147.47788734296907" y="38.404545454545456"/>
    <circle cx="75.48894367148453" cy="26.802272727272726" fill="#e5b472" r="0.5"/>
    <rect fill="#4e4c4c" height="1.0" width="0.2" x="75.38894367148453" y="27.802272727272726"/>
    <rect fill="#4e4c4c" height="0.2" width="1.7" x="73.68894367148454" y="28.602272727272727"/>
    <rect height="0.0" id="cb2l.back.f_csn.anchor" width="0.0" x="147.47788734296907" y="43.50454545454545"/>
    <rect fill="#4e4c4c" height="0.2" width="2.6" x="71.08894367148454" y="13.702272727272726"/>
    <g transform="translate(67.30330302542943,13.002272727272725)">
        <rect fill="#000" height="1.6" rx="0.3" ry="0.3" transform="skewX(-15)" width="3.4" x="0" y="0"/>
    </g>
    <text dominant-baseline="central" fill="white" font-family="Consolas" font-size="1.2" text-anchor="middle" x="68.78894367148453" y="13.802272727272726">GND</text>
    <rect fill="#4e4c4c" height="0.2" width="2.6" x="71.08894367148454" y="23.502272727272725"/>
    <g transform="translate(67.30330302542943,22.802272727272726)">
        <rect fill="#ed602e" height="1.6" rx="0.3" ry="0.3" transform="skewX(-15)" width="3.4" x="0" y="0"/>
    </g>
    <text dominant-baseline="central" fill="#423F42" font-family="Consolas" font-size="1.2" text-anchor="middle" x="68.78894367148453" y="23.602272727272727">CEN</text>
    <rect fill="#4e4c4c" height="0.2" width="2.6" x="71.08894367148454" y="19.702272727272724"/>
    <g transform="translate(67.30330302542943,19.002272727272725)">
        <rect fill="#800000" height="1.6" rx="0.3" ry="0.3" transform="skewX(-15)" width="3.4" x="0" y="0"/>
    </g>
    <text dominant-baseline="central" fill="white" font-family="Consolas" font-size="1.2" text-anchor="middle" x="68.78894367148453" y="19.802272727272726">P10</text>
    <g transform="translate(63.703303025429435,19.002272727272725)">
        <rect fill="#dcd4ee" height="1.6" rx="0.3" ry="0.3" transform="skewX(-15)" width="3.4" x="0" y="0"/>
    </g>
    <text dominant-baseline="central" fill="#423F42" font-family="Consolas" font-size="1.2" text-anchor="middle" x="65.18894367148454" y="19.802272727272726">RX1</text>
    <rect fill="#4e4c4c" height="0.2" width="2.6" x="71.08894367148454" y="17.702272727272724"/>
    <g transform="translate(67.30330302542943,17.002272727272725)">
        <rect fill="#800000" height="1.6" rx="0.3" ry="0.3" transform="skewX(-15)" width="3.4" x="0" y="0"/>
    </g>
    <text dominant-baseline="central" fill="white" font-family="Consolas" font-size="1.2" text-anchor="middle" x="68.78894367148453" y="17.802272727272726">P0</text>
    <g transform="translate(63.703303025429435,17.002272727272725)">
        <rect fill="#dcd4ee" height="1.6" rx="0.3" ry="0.3" transform="skewX(-15)" width="3.4" x="0" y="0"/>
    </g>
    <text dominant-baseline="central" fill="#423F42" font-family="Consolas" font-size="1.2" text-anchor="middle" x="65.18894367148454" y="17.802272727272726">TX2</text>
    <rect fill="#4e4c4c" height="0.2" width="2.6" x="71.08894367148454" y="15.702272727272726"/>
    <g transform="translate(67.30330302542943,15.002272727272725)">
        <rect fill="#800000" height="1.6" rx="0.3" ry="0.3" transform="skewX(-15)" width="3.4" x="0" y="0"/>
    </g>
    <text dominant-baseline="central" fill="white" font-family="Consolas" font-size="1.2" text-anchor="middle" x="68.78894367148453" y="15.802272727272726">P11</text>
    <g transform="translate(63.703303025429435,15.002272727272725)">
        <rect fill="#dcd4ee" height="1.6" rx="0.3" ry="0.3" transform="skewX(-15)" width="3.4" x="0" y="0"/>
    </g>
    <text dominant-baseline="central" fill="#423F42" font-family="Consolas" font-size="1.2" text-anchor="middle" x="65.18894367148454" y="15.802272727272726">TX1</text>
    <rect fill="#4e4c4c" height="0.2" width="2.6" x="71.08894367148454" y="28.602272727272727"/>
    <g transform="translate(67.30330302542943,27.902272727272727)">
        <rect fill="#800000" height="1.6" rx="0.3" ry="0.3" transform="skewX(-15)" width="3.4" x="0" y="0"/>
    </g>
    <text dominant-baseline="central" fill="white" font-family="Consolas" font-size="1.2" text-anchor="middle" x="68.78894367148453" y="28.702272727272728">P21</text>
</svg>
